<svg width="54" height="29" viewBox="0 0 54 29" fill="none" xmlns="http://www.w3.org/2000/svg">
<g clip-path="url(#clip0_39_9)">
<path d="M9.94388 2.76629C11.6321 1.02005 13.8715 0 16.5023 0C21.6275 0 25.0255 3.68429 25.6756 9.2036C25.8864 10.996 25.8845 13.523 25.8824 16.4499C25.8821 16.75 25.8819 17.0544 25.8819 17.3627V28.3274H18.8338V20.2175C18.8338 20.2175 18.8195 13.2767 18.7764 11.9794C18.5872 6.32969 15.1901 2.77967 9.94315 2.77585C8.3601 4.42255 7.51189 6.43593 7.3868 9.51445C7.3696 9.94383 7.37393 11.4658 7.37963 13.4717C7.38258 14.511 7.3859 15.6802 7.3868 16.8947C7.39202 22.1807 7.3868 28.3286 7.3868 28.3286H0.338727V15.8476C0.338727 15.4199 0.330811 14.9886 0.322864 14.5556C0.306878 13.6846 0.290768 12.8069 0.338727 11.9379C0.418359 10.489 0.67292 9.06477 1.35958 7.74166C2.93133 4.71051 6.15185 2.75886 9.58518 2.75886C9.70512 2.75886 9.82514 2.76134 9.94388 2.76629Z" fill="#820AD1"/>
<path d="M53.6612 17.0621C53.7092 16.193 53.6931 15.3153 53.6772 14.4443C53.6692 14.0113 53.6612 13.5801 53.6612 13.1524V0.671403H46.6132C46.6132 0.671403 46.608 6.81922 46.6132 12.1052C46.6141 13.3197 46.6174 14.4888 46.6203 15.5281C46.626 17.5341 46.6304 19.0561 46.6132 19.4855C46.4881 22.5641 45.6399 24.5774 44.0569 26.2241C38.81 26.2203 35.413 22.6702 35.2237 17.0205C35.1806 15.7233 35.1624 12.5042 35.1624 8.77595V0.666107L28.1196 0.672587V11.6373C28.1196 11.9455 28.1193 12.2499 28.1191 12.5501C28.1169 15.477 28.115 18.0039 28.3258 19.7964C28.9746 25.3157 32.3726 29 37.4978 29C40.1287 29 42.3681 27.9799 44.0563 26.2337C44.1749 26.2386 44.2949 26.2411 44.4148 26.2411C47.8481 26.2411 51.0687 24.2895 52.6405 21.2584C53.3271 19.9351 53.5816 18.511 53.6612 17.0621Z" fill="#820AD1"/>
</g>
<defs>
<clipPath id="clip0_39_9">
<rect width="54" height="29" fill="white"/>
</clipPath>
</defs>
</svg>
